<svg width="152" height="44" viewBox="0 0 152 44" fill="none" xmlns="http://www.w3.org/2000/svg">
<path d="M54.7075 22H52.1587L50.8989 18.4355H45.3911L44.1802 22H41.6411L46.8853 7.99609H49.5024L54.7075 22ZM50.2837 16.541L48.3403 10.9551C48.2817 10.7728 48.2199 10.4798 48.1548 10.0762H48.1157C48.0571 10.4473 47.992 10.7402 47.9204 10.9551L45.9966 16.541H50.2837ZM58.6626 22H56.3872V7.19531H58.6626V22ZM62.7642 9.90039C62.3931 9.90039 62.0741 9.77995 61.8071 9.53906C61.5467 9.29818 61.4165 8.99219 61.4165 8.62109C61.4165 8.25 61.5467 7.94076 61.8071 7.69336C62.0741 7.44596 62.3931 7.32227 62.7642 7.32227C63.1483 7.32227 63.4738 7.44596 63.7407 7.69336C64.0076 7.94076 64.1411 8.25 64.1411 8.62109C64.1411 8.97266 64.0076 9.27539 63.7407 9.5293C63.4738 9.77669 63.1483 9.90039 62.7642 9.90039ZM63.8872 22H61.6216V12H63.8872V22ZM74.0142 21.541C73.2134 22.0033 72.2661 22.2344 71.1724 22.2344C69.688 22.2344 68.4901 21.7721 67.5786 20.8477C66.6672 19.9167 66.2114 18.7122 66.2114 17.2344C66.2114 15.5872 66.6997 14.2656 67.6763 13.2695C68.6593 12.2669 69.9712 11.7656 71.6118 11.7656C72.5233 11.7656 73.3273 11.9251 74.0239 12.2441V14.3535C73.3273 13.8327 72.5851 13.5723 71.7974 13.5723C70.8403 13.5723 70.0558 13.8978 69.4438 14.5488C68.8319 15.1934 68.5259 16.0397 68.5259 17.0879C68.5259 18.123 68.8123 18.9401 69.3853 19.5391C69.9647 20.138 70.7394 20.4375 71.7095 20.4375C72.5233 20.4375 73.2915 20.1478 74.0142 19.5684V21.541ZM84.7368 17.6152H77.9204C77.9465 18.5397 78.2297 19.2526 78.77 19.7539C79.3169 20.2552 80.0656 20.5059 81.0161 20.5059C82.0838 20.5059 83.0636 20.1868 83.9556 19.5488V21.375C83.0441 21.9479 81.8397 22.2344 80.3423 22.2344C78.8709 22.2344 77.7153 21.7819 76.8755 20.877C76.0422 19.9655 75.6255 18.6862 75.6255 17.0391C75.6255 15.4831 76.0845 14.2168 77.0024 13.2402C77.9269 12.2572 79.0728 11.7656 80.4399 11.7656C81.8071 11.7656 82.8651 12.2051 83.6138 13.084C84.3625 13.9629 84.7368 15.1836 84.7368 16.7461V17.6152ZM82.5493 16.0137C82.5428 15.1999 82.3507 14.5684 81.9731 14.1191C81.5955 13.6634 81.0747 13.4355 80.4106 13.4355C79.7596 13.4355 79.2062 13.6732 78.7505 14.1484C78.3013 14.6237 78.0246 15.2454 77.9204 16.0137H82.5493Z" fill="white"/>
<path d="M49.8335 32.1719H45.1226V35.96H49.4644V37.7266H45.1226V43H43.0308V30.3965H49.8335V32.1719ZM58.1479 43H56.1704V41.5938H56.1353C55.5142 42.6719 54.603 43.2109 53.4019 43.2109C52.5171 43.2109 51.8228 42.9707 51.3188 42.4902C50.8208 42.0098 50.5718 41.374 50.5718 40.583C50.5718 38.8838 51.5503 37.8936 53.5073 37.6123L56.1792 37.2344C56.1792 35.9512 55.5698 35.3096 54.3511 35.3096C53.2788 35.3096 52.312 35.6787 51.4507 36.417V34.6328C52.3999 34.0703 53.4956 33.7891 54.7378 33.7891C57.0112 33.7891 58.1479 34.9082 58.1479 37.1465V43ZM56.1792 38.5791L54.2896 38.8428C53.7036 38.9189 53.2612 39.0625 52.9624 39.2734C52.6694 39.4785 52.5229 39.8418 52.5229 40.3633C52.5229 40.7441 52.6577 41.0576 52.9272 41.3037C53.2026 41.5439 53.5688 41.6641 54.0259 41.6641C54.647 41.6641 55.1597 41.4473 55.564 41.0137C55.9741 40.5742 56.1792 40.0234 56.1792 39.3613V38.5791ZM60.0815 42.7188V40.8291C60.8433 41.4092 61.6841 41.6992 62.604 41.6992C63.8345 41.6992 64.4497 41.3359 64.4497 40.6094C64.4497 40.4043 64.397 40.2314 64.2915 40.0908C64.186 39.9443 64.0425 39.8154 63.8608 39.7041C63.6851 39.5928 63.4741 39.4932 63.228 39.4053C62.9878 39.3174 62.7183 39.2178 62.4194 39.1064C62.0503 38.96 61.7163 38.8047 61.4175 38.6406C61.1245 38.4766 60.8784 38.292 60.6792 38.0869C60.4858 37.876 60.3394 37.6387 60.2397 37.375C60.1401 37.1113 60.0903 36.8037 60.0903 36.4521C60.0903 36.0186 60.1929 35.6377 60.3979 35.3096C60.603 34.9756 60.8784 34.6973 61.2241 34.4746C61.5698 34.2461 61.9624 34.0762 62.4019 33.9648C62.8413 33.8477 63.2954 33.7891 63.7642 33.7891C64.5962 33.7891 65.3403 33.915 65.9966 34.167V35.9512C65.3638 35.5176 64.6372 35.3008 63.8169 35.3008C63.5591 35.3008 63.3247 35.3271 63.1138 35.3799C62.9087 35.4326 62.7329 35.5059 62.5864 35.5996C62.4399 35.6934 62.3257 35.8076 62.2437 35.9424C62.1616 36.0713 62.1206 36.2148 62.1206 36.373C62.1206 36.5664 62.1616 36.7305 62.2437 36.8652C62.3257 37 62.4458 37.1201 62.604 37.2256C62.7681 37.3252 62.9614 37.4189 63.1841 37.5068C63.4126 37.5889 63.6733 37.6797 63.9663 37.7793C64.353 37.9375 64.6987 38.0986 65.0034 38.2627C65.314 38.4268 65.5776 38.6143 65.7944 38.8252C66.0112 39.0303 66.1782 39.2705 66.2954 39.5459C66.4126 39.8154 66.4712 40.1377 66.4712 40.5127C66.4712 40.9697 66.3657 41.3682 66.1548 41.708C65.9438 42.0479 65.6626 42.3291 65.311 42.5518C64.9595 42.7744 64.5522 42.9385 64.0894 43.0439C63.6323 43.1553 63.1489 43.2109 62.6392 43.2109C61.6548 43.2109 60.8022 43.0469 60.0815 42.7188ZM76.4116 43H74.3726V38.0781C74.3726 36.2969 73.7778 35.4062 72.5884 35.4062C71.9907 35.4062 71.4868 35.6641 71.0767 36.1797C70.6665 36.6953 70.4614 37.3545 70.4614 38.1572V43H68.4136V29.6758H70.4614V35.4941H70.4966C71.1763 34.3574 72.1489 33.7891 73.4146 33.7891C75.4126 33.7891 76.4116 35.0107 76.4116 37.4541V43ZM79.9185 32.1104C79.5845 32.1104 79.2974 32.002 79.0571 31.7852C78.8228 31.5684 78.7056 31.293 78.7056 30.959C78.7056 30.625 78.8228 30.3467 79.0571 30.124C79.2974 29.9014 79.5845 29.79 79.9185 29.79C80.2642 29.79 80.5571 29.9014 80.7974 30.124C81.0376 30.3467 81.1577 30.625 81.1577 30.959C81.1577 31.2754 81.0376 31.5479 80.7974 31.7764C80.5571 31.999 80.2642 32.1104 79.9185 32.1104ZM80.9292 43H78.8901V34H80.9292V43ZM87.5913 43.2109C86.2026 43.2109 85.0923 42.792 84.2603 41.9541C83.4341 41.1104 83.021 39.9941 83.021 38.6055C83.021 37.0938 83.4517 35.9131 84.313 35.0635C85.1802 34.2139 86.3462 33.7891 87.811 33.7891C89.2173 33.7891 90.313 34.2021 91.0981 35.0283C91.8833 35.8545 92.2759 37 92.2759 38.4648C92.2759 39.9004 91.8511 41.0518 91.0015 41.9189C90.1577 42.7803 89.021 43.2109 87.5913 43.2109ZM87.688 35.415C86.8911 35.415 86.2612 35.6934 85.7983 36.25C85.3354 36.8066 85.104 37.5742 85.104 38.5527C85.104 39.4961 85.3384 40.2402 85.8071 40.7852C86.2759 41.3242 86.9028 41.5938 87.688 41.5938C88.4907 41.5938 89.106 41.3271 89.5337 40.7939C89.9673 40.2607 90.1841 39.502 90.1841 38.5176C90.1841 37.5273 89.9673 36.7627 89.5337 36.2236C89.106 35.6846 88.4907 35.415 87.688 35.415ZM102.375 43H100.335V37.9287C100.335 36.2471 99.7407 35.4062 98.5513 35.4062C97.9302 35.4062 97.4175 35.6406 97.0132 36.1094C96.6089 36.5723 96.4067 37.1582 96.4067 37.8672V43H94.3589V34H96.4067V35.4941H96.4419C97.1157 34.3574 98.0884 33.7891 99.3599 33.7891C100.338 33.7891 101.085 34.1084 101.601 34.7471C102.117 35.3799 102.375 36.2969 102.375 37.498V43ZM109.476 42.499V40.3457C109.669 40.5215 109.898 40.6797 110.162 40.8203C110.431 40.9609 110.715 41.0811 111.014 41.1807C111.313 41.2744 111.612 41.3477 111.911 41.4004C112.209 41.4531 112.485 41.4795 112.737 41.4795C113.616 41.4795 114.269 41.333 114.697 41.04C115.13 40.7471 115.347 40.3223 115.347 39.7656C115.347 39.4668 115.274 39.209 115.127 38.9922C114.987 38.7695 114.788 38.5674 114.53 38.3857C114.272 38.2041 113.967 38.0312 113.616 37.8672C113.27 37.6973 112.898 37.5215 112.5 37.3398C112.072 37.1113 111.673 36.8799 111.304 36.6455C110.935 36.4111 110.613 36.1533 110.337 35.8721C110.068 35.585 109.854 35.2627 109.696 34.9053C109.543 34.5479 109.467 34.1289 109.467 33.6484C109.467 33.0566 109.599 32.5439 109.863 32.1104C110.132 31.6709 110.484 31.3105 110.917 31.0293C111.357 30.7422 111.855 30.5312 112.412 30.3965C112.968 30.2559 113.537 30.1855 114.117 30.1855C115.435 30.1855 116.396 30.335 117 30.6338V32.6992C116.285 32.1836 115.365 31.9258 114.24 31.9258C113.929 31.9258 113.619 31.9551 113.308 32.0137C113.003 32.0723 112.728 32.1689 112.482 32.3037C112.242 32.4385 112.045 32.6113 111.893 32.8223C111.741 33.0332 111.665 33.2881 111.665 33.5869C111.665 33.8682 111.723 34.1113 111.84 34.3164C111.958 34.5215 112.127 34.709 112.35 34.8789C112.579 35.0488 112.854 35.2158 113.176 35.3799C113.504 35.5381 113.882 35.7109 114.31 35.8984C114.75 36.127 115.163 36.3672 115.549 36.6191C115.942 36.8711 116.285 37.1494 116.578 37.4541C116.876 37.7588 117.111 38.0986 117.281 38.4736C117.457 38.8428 117.544 39.2646 117.544 39.7393C117.544 40.3779 117.416 40.917 117.158 41.3564C116.9 41.7959 116.551 42.1533 116.112 42.4287C115.678 42.7041 115.177 42.9033 114.609 43.0264C114.041 43.1494 113.44 43.2109 112.807 43.2109C112.596 43.2109 112.335 43.1934 112.025 43.1582C111.72 43.1289 111.407 43.082 111.084 43.0176C110.762 42.959 110.458 42.8857 110.17 42.7979C109.883 42.71 109.652 42.6104 109.476 42.499ZM123.855 42.9033C123.457 43.1025 122.932 43.2021 122.282 43.2021C120.536 43.2021 119.663 42.3643 119.663 40.6885V35.5996H118.16V34H119.663V31.917L121.702 31.3369V34H123.855V35.5996H121.702V40.0996C121.702 40.6328 121.798 41.0137 121.992 41.2422C122.185 41.4707 122.507 41.585 122.958 41.585C123.304 41.585 123.603 41.4854 123.855 41.2861V42.9033ZM129.498 43.2109C128.109 43.2109 126.999 42.792 126.167 41.9541C125.34 41.1104 124.927 39.9941 124.927 38.6055C124.927 37.0938 125.358 35.9131 126.219 35.0635C127.086 34.2139 128.252 33.7891 129.717 33.7891C131.124 33.7891 132.219 34.2021 133.004 35.0283C133.79 35.8545 134.182 37 134.182 38.4648C134.182 39.9004 133.757 41.0518 132.908 41.9189C132.064 42.7803 130.927 43.2109 129.498 43.2109ZM129.594 35.415C128.797 35.415 128.167 35.6934 127.705 36.25C127.242 36.8066 127.01 37.5742 127.01 38.5527C127.01 39.4961 127.245 40.2402 127.713 40.7852C128.182 41.3242 128.809 41.5938 129.594 41.5938C130.397 41.5938 131.012 41.3271 131.44 40.7939C131.874 40.2607 132.09 39.502 132.09 38.5176C132.09 37.5273 131.874 36.7627 131.44 36.2236C131.012 35.6846 130.397 35.415 129.594 35.415ZM141.486 35.9424C141.24 35.749 140.885 35.6523 140.422 35.6523C139.819 35.6523 139.315 35.9248 138.911 36.4697C138.506 37.0146 138.304 37.7559 138.304 38.6934V43H136.265V34H138.304V35.8545H138.339C138.539 35.2217 138.843 34.7295 139.253 34.3779C139.669 34.0205 140.132 33.8418 140.642 33.8418C141.011 33.8418 141.292 33.8975 141.486 34.0088V35.9424ZM150.389 39.0537H144.254C144.278 39.8857 144.533 40.5273 145.019 40.9785C145.511 41.4297 146.185 41.6553 147.041 41.6553C148.001 41.6553 148.883 41.3682 149.686 40.7939V42.4375C148.866 42.9531 147.782 43.2109 146.434 43.2109C145.11 43.2109 144.07 42.8037 143.314 41.9893C142.564 41.1689 142.189 40.0176 142.189 38.5352C142.189 37.1348 142.602 35.9951 143.428 35.1162C144.26 34.2314 145.292 33.7891 146.522 33.7891C147.752 33.7891 148.705 34.1846 149.378 34.9756C150.052 35.7666 150.389 36.8652 150.389 38.2715V39.0537ZM148.42 37.6123C148.415 36.8799 148.242 36.3115 147.902 35.9072C147.562 35.4971 147.093 35.292 146.496 35.292C145.91 35.292 145.412 35.5059 145.001 35.9336C144.597 36.3613 144.348 36.9209 144.254 37.6123H148.42Z" fill="white"/>
<path d="M33.9486 36.2977L30.4315 21.1341H26.1511V15.651C26.151 10.8809 22.2702 7 17.4999 7C12.7296 7 8.8488 10.8809 8.8488 15.651V21.1341H4.56839L1.05129 36.2977C0.72898 37.6875 1.05307 39.1253 1.94072 40.2423C2.82837 41.3594 4.15564 42 5.58237 42H29.4174C30.8442 42 32.1716 41.3593 33.0592 40.2423C33.9468 39.1253 34.271 37.6875 33.9486 36.2977ZM10.8997 15.651C10.8997 12.0116 13.8606 9.05085 17.5 9.05085C21.1393 9.05085 24.1002 12.0117 24.1002 15.651V21.1341H10.8997V15.651ZM31.4535 38.9665C30.9572 39.591 30.2151 39.9492 29.4175 39.9492H5.58237C4.78468 39.9492 4.04264 39.5911 3.54642 38.9665C3.0502 38.3419 2.86898 37.5381 3.04924 36.761L6.19815 23.185H8.84893V24.4719H8.12801V26.5228H11.6208V24.4719H10.8999V23.185H24.1003V24.4719H23.3793V26.5228H26.8722V24.4719H26.1512V23.185H28.802L31.9509 36.761C32.1309 37.5381 31.9497 38.3419 31.4535 38.9665Z" fill="white"/>
<path d="M14.5662 24.472V26.5229H16.4746V28.1074H18.5255V26.5229H20.4339V24.472H14.5662Z" fill="white"/>
</svg>
