<svg width="30" height="30" viewBox="0 0 30 30" fill="none" xmlns="http://www.w3.org/2000/svg">
<path d="M27.5068 17.6544L29.9691 5.4673C30.0105 5.26148 30.0103 5.0478 29.9684 4.8421C29.9264 4.6364 29.8439 4.44395 29.7269 4.27901C29.6098 4.11407 29.4613 3.98086 29.2923 3.88926C29.1233 3.79767 28.9381 3.75002 28.7505 3.74986H8.29211L7.81506 1.12413C7.75744 0.807146 7.60438 0.522228 7.38172 0.317442C7.15905 0.112655 6.88041 0.000536008 6.5928 2.47147e-07H1.25041C1.08618 -0.000109299 0.923534 0.0361991 0.771784 0.106849C0.620033 0.1775 0.48215 0.281106 0.36602 0.411744C0.249889 0.542382 0.157788 0.69749 0.0949837 0.868198C0.0321792 1.03891 -9.71616e-05 1.22187 2.19701e-07 1.40662V2.34408C1.90858e-07 2.52876 0.0323484 2.71163 0.0951964 2.88224C0.158044 3.05285 0.250161 3.20786 0.366282 3.33841C0.482403 3.46896 0.620252 3.5725 0.771955 3.64309C0.923657 3.71369 1.08624 3.74997 1.25041 3.74986H4.88904L8.54842 23.8725C8.01833 24.2148 7.59722 24.7357 7.34452 25.3617C7.09183 25.9878 7.02033 26.6873 7.14011 27.3615C7.25989 28.0358 7.56491 28.6507 8.01209 29.1194C8.45927 29.5881 9.02603 29.8869 9.63235 29.9737C10.2387 30.0605 10.8539 29.9309 11.3912 29.6032C11.9285 29.2754 12.3607 28.7661 12.6268 28.1471C12.8929 27.5282 12.9795 26.8308 12.8742 26.1535C12.769 25.4762 12.4773 24.8532 12.0404 24.3724H22.9637C22.5214 24.8603 22.2288 25.494 22.1282 26.1816C22.0276 26.8692 22.1243 27.5749 22.4043 28.1965C22.6842 28.8181 23.1329 29.3232 23.6852 29.6387C24.2375 29.9542 24.8648 30.0635 25.4761 29.951C26.0874 29.8384 26.651 29.5098 27.0851 29.0127C27.5192 28.5156 27.8013 27.8759 27.8904 27.1863C27.9796 26.4968 27.8712 25.7932 27.581 25.1775C27.2908 24.5619 26.8338 24.0663 26.2764 23.7625L26.5638 22.34C26.6053 22.1341 26.605 21.9204 26.563 21.7146C26.5211 21.5089 26.4385 21.3164 26.3214 21.1514C26.2042 20.9864 26.0556 20.8533 25.8865 20.7617C25.7174 20.6702 25.5322 20.6226 25.3445 20.6226H11.3604L11.0196 18.7476H26.2882C26.5714 18.7477 26.8462 18.6395 27.0676 18.4409C27.289 18.2423 27.4438 17.9649 27.5068 17.6544Z" fill="white"/>
</svg>
