<svg width="20" height="21" viewBox="0 0 20 21" fill="none" xmlns="http://www.w3.org/2000/svg">
<path d="M14.4999 0.581098C13.644 0.58826 12.7996 0.795285 12.0233 1.18822C11.2471 1.58116 10.5572 2.15088 10 2.85899C9.44285 2.15088 8.75291 1.58116 7.97668 1.18822C7.20045 0.795285 6.35596 0.58826 5.50012 0.581098C4.77589 0.57333 4.05751 0.723077 3.38701 1.02158C2.71652 1.32008 2.10738 1.76133 1.59525 2.31952C1.08311 2.87771 0.678267 3.54163 0.404398 4.27242C0.130528 5.00321 -0.00686332 5.7862 0.000263728 6.57556C0.000263728 10.6954 3.40017 14.0523 8.55004 19.153L10 20.5808L11.45 19.1421C16.5998 14.0523 19.9997 10.6954 19.9997 6.57556C20.0069 5.7862 19.8695 5.00321 19.5956 4.27242C19.3217 3.54163 18.9169 2.87771 18.4048 2.31952C17.8926 1.76133 17.2835 1.32008 16.613 1.02158C15.9425 0.723077 15.2241 0.57333 14.4999 0.581098ZM10.1 17.5291L10 17.6381L9.9 17.5291C5.14013 12.8316 2.00021 9.72538 2.00021 6.57556C1.98897 6.07127 2.07182 5.56974 2.24373 5.10139C2.41563 4.63303 2.67302 4.20761 3.00029 3.85092C3.32755 3.49422 3.71787 3.21368 4.14758 3.02632C4.57729 2.83895 5.03744 2.74865 5.50012 2.7609C6.25959 2.76568 7.00135 3.01149 7.63473 3.46828C8.26812 3.92507 8.76571 4.57306 9.06669 5.33307H10.94C11.2379 4.57214 11.7338 3.923 12.3665 3.46587C12.9991 3.00875 13.7408 2.76366 14.4999 2.7609C14.9626 2.74865 15.4227 2.83895 15.8524 3.02632C16.2821 3.21368 16.6725 3.49422 16.9997 3.85092C17.327 4.20761 17.5844 4.63303 17.7563 5.10139C17.9282 5.56974 18.011 6.07127 17.9998 6.57556C17.9998 9.72538 14.8599 12.8316 10.1 17.5291Z" fill="white"/>
</svg>
