<svg width="35" height="35" viewBox="0 0 35 35" fill="none" xmlns="http://www.w3.org/2000/svg">
<path d="M25.7031 6.2207H9.29688C7.60071 6.2207 6.2207 7.60071 6.2207 9.29688V25.7031C6.2207 27.3993 7.60071 28.7793 9.29688 28.7793H25.7031C27.3993 28.7793 28.7793 27.3993 28.7793 25.7031V9.29688C28.7793 7.60071 27.3993 6.2207 25.7031 6.2207ZM17.5 24.6777C13.5426 24.6777 10.3223 21.4574 10.3223 17.5C10.3223 13.5426 13.5426 10.3223 17.5 10.3223C21.4574 10.3223 24.6777 13.5426 24.6777 17.5C24.6777 21.4574 21.4574 24.6777 17.5 24.6777ZM24.6777 12.373C23.5471 12.373 22.627 11.4529 22.627 10.3223C22.627 9.19167 23.5471 8.27148 24.6777 8.27148C25.8083 8.27148 26.7285 9.19167 26.7285 10.3223C26.7285 11.4529 25.8083 12.373 24.6777 12.373Z" fill="white"/>
<path d="M17.5 12.373C14.6732 12.373 12.373 14.6732 12.373 17.5C12.373 20.3268 14.6732 22.627 17.5 22.627C20.3268 22.627 22.627 20.3268 22.627 17.5C22.627 14.6732 20.3268 12.373 17.5 12.373Z" fill="white"/>
<path d="M29.8047 0H5.19531C2.36855 0 0 2.36855 0 5.19531V29.8047C0 32.6315 2.36855 35 5.19531 35H29.8047C32.6315 35 35 32.6315 35 29.8047V5.19531C35 2.36855 32.6315 0 29.8047 0ZM30.8301 25.7031C30.8301 28.5299 28.5299 30.8301 25.7031 30.8301H9.29688C6.47011 30.8301 4.16992 28.5299 4.16992 25.7031V9.29688C4.16992 6.47011 6.47011 4.16992 9.29688 4.16992H25.7031C28.5299 4.16992 30.8301 6.47011 30.8301 9.29688V25.7031Z" fill="white"/>
</svg>
