<svg width="56" height="56" viewBox="0 0 56 56" fill="none" xmlns="http://www.w3.org/2000/svg">
<path d="M31.2334 22.3896L22.8213 16.0602V40.9348L31.2302 34.6053L39.366 28.4979L31.2334 22.3896ZM31.2334 22.3896L22.8213 16.0602V40.9348L31.2302 34.6053L39.366 28.4979L31.2334 22.3896ZM31.2334 22.3896L22.8213 16.0602V40.9348L31.2302 34.6053L39.366 28.4979L31.2334 22.3896ZM25.5808 6.58095V0.997925C20.2719 1.50814 15.1954 3.62237 10.9142 7.10622L14.8288 11.0584C18.0094 8.59311 21.7071 7.0527 25.5768 6.58095H25.5808ZM10.9429 14.9555L7.00036 11.0313C3.61488 15.1091 1.48336 20.2525 0.907471 25.7335H6.4765C6.99181 21.7446 8.54235 18.0029 10.9429 14.9555ZM6.4765 31.2597H0.907471C1.4832 36.741 3.61473 41.8847 7.00036 45.9628L10.9429 42.0098C8.53851 38.9759 6.98708 35.2418 6.4765 31.2597ZM10.915 49.8879C15.1989 53.366 20.274 55.4787 25.5816 55.9936V50.4149C21.7119 49.9432 18.0142 48.4027 14.8336 45.9375L10.919 49.8896L10.915 49.8879ZM55.9075 28.4979C55.9075 42.7588 45.1006 54.5331 31.2334 55.9979V50.4149C42.0402 48.9772 50.3934 39.6911 50.3934 28.4979C50.3934 17.3048 42.0402 8.01779 31.2334 6.58095V0.997925C45.1006 2.46273 55.9075 14.2362 55.9075 28.4979Z" fill="white"/>
</svg>
