<svg width="35" height="35" viewBox="0 0 35 35" fill="none" xmlns="http://www.w3.org/2000/svg">
<path d="M26.2222 0H8.75C3.94444 0 0 3.94444 0 8.77778V26.25C0 31.0556 3.94444 35 8.75 35H26.2222C31.0556 35 35 31.0556 35 26.2222V8.77778C35 3.94444 31.0556 0 26.2222 0ZM19.25 22.3611C17.8611 22.3611 16.5278 21.6389 16.0833 20.8056C16.0833 20.8056 15.3333 23.6944 15.1667 24.25C14.6111 26.2222 12.9444 28.1944 12.8333 28.3611C12.75 28.4722 12.5556 28.4444 12.5278 28.2778C12.5 28.0278 12.0833 25.5278 12.5556 23.5C12.8056 22.4722 14.2222 16.6667 14.2222 16.6667C14.2222 16.6667 13.8056 15.8611 13.8056 14.6944C13.8056 12.8333 14.9167 11.4444 16.3056 11.4444C17.4722 11.4444 18.0556 12.3056 18.0556 13.3333C18.0556 14.4722 17.3056 16.1944 16.9167 17.7778C16.5833 19.1111 17.6111 20.1944 18.9722 20.1944C21.4167 20.1944 23.0833 17.1389 23.0833 13.5278C23.0833 10.7778 21.1667 8.72222 17.6944 8.72222C13.7778 8.72222 11.3056 11.5556 11.3056 14.7222C11.3056 15.8056 11.6389 16.5833 12.1667 17.1944C12.4167 17.4722 12.4444 17.5833 12.3611 17.8889C12.3056 18.1111 12.1667 18.6667 12.0833 18.8889C12 19.1944 11.7222 19.3333 11.4444 19.1944C9.63889 18.4722 8.80556 16.5556 8.80556 14.3889C8.80556 10.8333 11.9167 6.55556 18.0556 6.55556C23 6.55556 26.25 10.0278 26.25 13.75C26.2222 18.6944 23.4167 22.3611 19.25 22.3611Z" fill="white"/>
</svg>
