<svg width="20" height="19" viewBox="0 0 20 19" fill="none" xmlns="http://www.w3.org/2000/svg">
<path d="M19.3668 16.3167L15.734 12.7883C15.5694 12.6292 15.3465 12.5401 15.1143 12.5405H14.5208C15.7067 11.0636 16.2679 9.20294 16.0902 7.33791C15.9125 5.47289 15.0091 3.74392 13.5643 2.50345C12.1195 1.26299 10.242 0.604442 8.31456 0.662054C6.38711 0.719667 4.55485 1.4891 3.1913 2.81351C1.82774 4.13792 1.03556 5.91757 0.976244 7.78968C0.916929 9.66179 1.59495 11.4854 2.87208 12.8887C4.1492 14.2921 5.92929 15.1695 7.84944 15.3421C9.76959 15.5147 11.6852 14.9695 13.2058 13.8177V14.3942C13.2054 14.6197 13.2972 14.8362 13.4609 14.9961L17.0963 18.522C17.1772 18.6011 17.2734 18.6639 17.3794 18.7067C17.4854 18.7496 17.5991 18.7717 17.7139 18.7717C17.8287 18.7717 17.9424 18.7496 18.0483 18.7067C18.1543 18.6639 18.2506 18.6011 18.3315 18.522L19.3624 17.5207C19.5273 17.3616 19.6204 17.1454 19.6212 16.9196C19.6221 16.6938 19.5305 16.477 19.3668 16.3167ZM8.54485 12.5414C7.62247 12.5414 6.7208 12.2757 5.95387 11.778C5.18694 11.2803 4.58919 10.5728 4.23621 9.74511C3.88323 8.91741 3.79087 8.00663 3.97082 7.12795C4.15077 6.24926 4.59494 5.44214 5.24716 4.80864C5.89938 4.17515 6.73036 3.74373 7.63502 3.56895C8.53967 3.39417 9.47737 3.48388 10.3295 3.82672C11.1817 4.16957 11.9101 4.75015 12.4225 5.49507C12.935 6.23998 13.2085 7.11576 13.2085 8.01165C13.2088 8.6066 13.0884 9.19578 12.8542 9.74551C12.6199 10.2952 12.2764 10.7947 11.8433 11.2154C11.4102 11.6361 10.8959 11.9697 10.3299 12.1973C9.76398 12.4248 9.15738 12.5417 8.54485 12.5414Z" fill="#4E306C"/>
</svg>
