<svg width="20" height="20" viewBox="0 0 20 20" fill="none" xmlns="http://www.w3.org/2000/svg">
<path d="M11.3203 7.82031H9.39453V5.89453C9.39453 5.45312 9.03906 5.09766 8.59766 5.09766C8.15625 5.09766 7.80078 5.45312 7.80078 5.89453V7.82031H5.875C5.43359 7.82031 5.07812 8.17578 5.07812 8.61719C5.07812 9.05859 5.43359 9.41406 5.875 9.41406H7.80078V11.3398C7.80078 11.7812 8.15625 12.1367 8.59766 12.1367C9.03906 12.1367 9.39453 11.7812 9.39453 11.3398V9.41406H11.3203C11.7617 9.41406 12.1172 9.05859 12.1172 8.61719C12.1172 8.17578 11.7578 7.82031 11.3203 7.82031Z" fill="#FFA5B0"/>
<path d="M8.60156 15.1836C4.97266 15.1836 2.03125 12.2461 2.03125 8.61719C2.03125 4.98828 4.97266 2.05078 8.60156 2.05078C12.2305 2.05078 15.168 4.99219 15.168 8.61719C15.168 12.2422 12.2266 15.1836 8.60156 15.1836ZM19.3359 18.2305L14.9102 13.8047C16.0703 12.3945 16.7695 10.5859 16.7695 8.61719C16.7695 4.10547 13.1133 0.445312 8.59766 0.445312C4.08203 0.445312 0.429688 4.10547 0.429688 8.61719C0.429688 13.1289 4.08594 16.7891 8.60156 16.7891C10.5703 16.7891 12.375 16.0938 13.7852 14.9336L18.2109 19.3594C18.4141 19.5664 19.0352 19.668 19.3398 19.3594C19.6484 19.0469 19.6484 18.543 19.3359 18.2305Z" fill="#FFA5B0"/>
</svg>
